<svg xmlns="http://www.w3.org/2000/svg" xmlns:xlink="http://www.w3.org/1999/xlink" width="816" zoomAndPan="magnify" viewBox="0 0 612 791.999994" height="1056" preserveAspectRatio="xMidYMid meet" version="1.0"><path fill="#29abe2" d="M 611.878906 305.753906 L 611.878906 306.246094 C 611.878906 311.382812 611.753906 316.523438 611.511719 321.542969 C 603.554688 483.320312 469.921875 611.9375 306.183594 611.9375 L 305.695312 611.9375 L 305.695312 0.0625 L 306.183594 0.0625 C 422.316406 0.0625 523.398438 64.796875 575.042969 160.25 C 598.539062 203.570312 611.878906 253.132812 611.878906 305.753906 Z M 611.878906 305.753906 " fill-opacity="1" fill-rule="nonzero"/><path fill="#0071bc" d="M 305.695312 0.0625 L 305.695312 611.9375 C 141.464844 611.9375 7.585938 482.464844 0.367188 320.074219 C 0.121094 315.546875 0 310.894531 0 306.246094 L 0 305.753906 C 0 252.644531 13.582031 202.59375 37.445312 159.027344 C 89.335938 64.308594 190.050781 0.0625 305.695312 0.0625 Z M 305.695312 0.0625 " fill-opacity="1" fill-rule="nonzero"/><path fill="#ffffff" d="M 423.417969 403.042969 C 395.886719 370.492188 354.277344 323.867188 309.855469 294.128906 C 308.386719 294.742188 307.039062 295.230469 305.570312 295.84375 C 301.777344 297.1875 297.984375 298.046875 294.3125 298.65625 L 293.703125 298.78125 C 288.683594 308.691406 280.851562 320.5625 270.082031 328.273438 C 262.742188 333.414062 254.175781 336.105469 244.507812 336.105469 C 234.59375 336.105469 225.539062 333.289062 219.664062 330.84375 C 215.503906 329.128906 212.320312 325.824219 210.730469 321.664062 C 209.140625 317.503906 209.261719 312.851562 211.21875 308.816406 L 235.449219 257.292969 C 237.777344 252.398438 241.570312 248.359375 246.34375 245.667969 L 282.566406 225.476562 L 261.761719 215.808594 C 257.96875 214.097656 253.441406 213.972656 249.523438 215.566406 C 226.640625 224.863281 195.554688 229.882812 181.972656 231.71875 C 180.871094 233.429688 179.402344 234.898438 177.6875 236.125 C 159.699219 248.726562 126.902344 282.871094 108.667969 369.390625 L 121.152344 376.976562 L 124.578125 379.058594 C 125.800781 377.589844 127.027344 376.121094 128.371094 374.285156 L 128.617188 373.917969 C 131.429688 370.246094 137.304688 364.128906 145.136719 363.027344 L 147.339844 362.78125 L 148.5625 362.660156 C 149.054688 362.660156 149.789062 362.539062 150.523438 362.539062 C 151.132812 362.539062 151.625 362.539062 152.234375 362.539062 C 154.191406 362.660156 156.027344 363.027344 157.742188 363.640625 C 159.699219 364.25 161.535156 365.109375 163.25 366.085938 L 168.511719 369.269531 C 172.550781 371.59375 175.855469 375.140625 177.933594 379.304688 C 179.890625 377.101562 181.851562 374.898438 183.808594 372.574219 C 186.253906 369.269531 193.71875 362.539062 202.53125 362.539062 L 205.835938 362.539062 C 207.183594 362.539062 208.40625 362.78125 209.628906 363.027344 C 211.585938 363.394531 213.300781 364.007812 215.015625 364.742188 C 216.847656 365.597656 218.441406 366.453125 219.910156 367.554688 L 225.171875 371.105469 L 225.414062 371.226562 C 230.554688 375.140625 233.980469 380.648438 235.082031 386.644531 C 236.675781 386.277344 238.265625 386.035156 239.855469 386.035156 L 240.589844 386.035156 L 242.914062 386.15625 L 243.894531 386.277344 C 245.117188 386.402344 246.464844 386.644531 247.6875 386.890625 C 249.523438 387.378906 251.238281 387.992188 252.949219 388.847656 C 254.664062 389.703125 256.253906 390.683594 257.601562 391.785156 L 263.105469 395.824219 L 263.351562 396.070312 C 269.226562 400.839844 272.652344 408.0625 272.53125 415.28125 L 272.53125 418.21875 L 274.734375 418.464844 C 275.957031 418.707031 277.179688 418.953125 278.40625 419.320312 C 280.238281 419.933594 281.953125 420.664062 283.542969 421.523438 C 285.378906 422.625 286.96875 423.726562 288.316406 425.070312 L 293.335938 430.210938 C 298.71875 435.472656 301.535156 442.695312 300.921875 449.792969 L 300.433594 454.441406 C 300.066406 458.113281 298.839844 461.539062 296.882812 464.476562 C 296.148438 465.457031 295.414062 466.433594 294.679688 467.289062 C 291.621094 470.226562 289.296875 472.554688 287.335938 474.511719 C 285.992188 475.855469 284.769531 476.957031 283.667969 478.183594 L 286.847656 480.140625 L 302.632812 486.75 C 302.632812 486.75 304.101562 487.238281 306.183594 487.972656 C 308.875 488.828125 312.546875 489.929688 315.851562 490.910156 C 320.257812 492.132812 324.90625 491.152344 328.578125 488.460938 L 332.003906 484.179688 C 333.71875 481.363281 335.1875 476.957031 332.128906 474.878906 C 319.523438 466.558594 312.058594 460.191406 306.183594 454.5625 C 304.714844 453.21875 303.367188 451.871094 302.144531 450.527344 C 302.144531 450.527344 302.511719 445.507812 306.183594 446.488281 C 307.039062 446.730469 308.019531 447.222656 309.242188 448.199219 C 315.605469 453.339844 310.464844 453.585938 326.007812 462.886719 C 333.351562 466.925781 340.816406 470.839844 347.914062 474.144531 C 352.195312 476.222656 357.214844 475.734375 361.007812 472.921875 L 367.25 466.679688 C 370.0625 462.519531 369.695312 456.644531 366.148438 454.074219 C 349.261719 441.59375 347.058594 439.632812 335.0625 428.007812 C 335.0625 428.007812 336.289062 419.320312 343.996094 425.5625 C 351.585938 431.679688 345.589844 432.292969 363.578125 443.0625 C 368.960938 445.996094 374.347656 448.445312 381.199219 451.136719 C 384.992188 452.605469 389.152344 452.238281 392.457031 449.914062 L 399.433594 442.203125 C 402.125 438.042969 398.945312 431.066406 396.742188 428.742188 C 396.007812 427.886719 395.761719 427.519531 393.558594 425.683594 C 376.792969 411.734375 358.558594 395.210938 348.648438 383.464844 C 348.648438 383.464844 350.484375 374.652344 358.558594 382.484375 C 365.902344 389.582031 360.394531 389.703125 375.203125 400.964844 C 383.890625 407.082031 392.824219 413.324219 401.757812 419.074219 C 406.164062 421.890625 411.671875 421.765625 415.953125 418.832031 L 424.765625 410.507812 C 425.867188 409.773438 426.355469 407.9375 426.480469 405.980469 Z M 170.101562 218.867188 L 109.035156 190.601562 C 105.121094 188.765625 100.59375 189.375 97.289062 192.070312 L 37.445312 159.148438 C 13.582031 202.59375 0 252.644531 0 305.753906 L 0 306.246094 C 0 310.894531 0.121094 315.546875 0.367188 320.074219 L 30.839844 335.003906 C 30.714844 337.695312 30.59375 340.386719 30.59375 343.078125 C 30.59375 346.875 32.429688 350.300781 35.488281 352.378906 L 81.992188 384.320312 C 85.050781 386.402344 88.84375 386.402344 92.027344 384.320312 C 94.472656 382.730469 95.820312 379.914062 95.941406 376.976562 L 96.308594 368.902344 L 96.433594 368.289062 C 115.398438 276.753906 150.765625 239.917969 170.835938 225.84375 C 173.285156 224.128906 172.917969 220.214844 170.101562 218.867188 Z M 67.0625 353.847656 C 59.839844 353.847656 53.84375 347.976562 53.84375 340.632812 C 53.84375 333.289062 59.71875 327.414062 67.0625 327.414062 C 74.40625 327.414062 80.277344 333.289062 80.277344 340.632812 C 80.277344 347.976562 74.28125 353.847656 67.0625 353.847656 Z M 434.066406 236.125 C 433.210938 235.511719 432.351562 234.777344 431.617188 234.042969 C 398.453125 240.652344 342.652344 229.027344 319.15625 223.398438 C 315.730469 222.539062 312.058594 223.03125 309 224.863281 L 305.695312 226.699219 L 252.460938 256.4375 C 249.890625 257.90625 247.933594 259.988281 246.710938 262.558594 L 222.480469 313.953125 C 221.988281 314.933594 221.988281 316.035156 222.355469 317.136719 C 222.722656 318.113281 223.457031 318.972656 224.558594 319.339844 C 233.246094 322.886719 249.769531 327.539062 263.105469 318.113281 C 273.386719 310.773438 280.605469 298.167969 284.890625 288.867188 L 285.378906 287.886719 C 288.683594 280.914062 291.5 273.570312 293.703125 265.859375 C 293.945312 272.589844 293.578125 279.445312 292.84375 286.296875 C 296.027344 285.808594 300.675781 284.828125 305.9375 282.382812 C 307.039062 281.890625 308.140625 281.402344 309.242188 280.789062 L 310.34375 280.179688 C 318.664062 275.652344 326.253906 270.265625 332.984375 263.535156 C 328.699219 270.878906 323.070312 277.609375 316.953125 283.726562 C 362.476562 314.199219 404.941406 361.558594 433.085938 394.84375 C 433.699219 395.578125 434.433594 396.433594 435.046875 397.167969 L 435.535156 397.167969 C 467.71875 388.480469 490.601562 372.328125 501.984375 363.027344 C 483.261719 281.28125 451.6875 248.484375 434.066406 236.125 Z M 284.15625 439.023438 L 279.261719 434.003906 C 278.527344 433.269531 277.792969 432.660156 276.9375 432.167969 C 276.078125 431.679688 275.101562 431.191406 274.242188 430.945312 C 273.632812 430.699219 273.019531 430.578125 272.40625 430.457031 C 272.285156 430.457031 272.039062 430.457031 271.917969 430.332031 L 269.59375 430.089844 C 266.410156 429.722656 261.761719 432.292969 259.679688 434.25 C 248.667969 443.671875 239.367188 449.792969 227.25 456.890625 C 237.285156 447.957031 247.441406 437.1875 257.722656 425.195312 C 257.96875 424.828125 258.335938 424.335938 258.578125 423.96875 C 259.3125 422.746094 259.679688 421.15625 259.679688 419.566406 L 259.804688 414.792969 C 259.804688 411.242188 258.089844 407.816406 255.152344 405.246094 L 249.644531 401.332031 C 248.910156 400.71875 248.054688 400.105469 247.199219 399.738281 C 246.21875 399.25 245.363281 399.003906 244.382812 398.761719 C 243.773438 398.636719 243.160156 398.515625 242.546875 398.515625 C 242.425781 398.515625 242.179688 398.515625 242.058594 398.515625 L 239.855469 398.394531 C 236.675781 398.269531 232.269531 401.207031 230.433594 403.289062 C 217.214844 418.097656 202.652344 427.761719 188.582031 438.042969 C 199.472656 427.761719 210.363281 415.160156 221.253906 400.839844 C 221.5 400.472656 221.746094 399.984375 221.988281 399.617188 C 222.601562 398.269531 222.96875 396.800781 222.847656 395.210938 L 222.722656 390.4375 C 222.601562 386.890625 220.644531 383.464844 217.582031 381.136719 L 212.320312 377.589844 C 211.464844 376.976562 210.609375 376.488281 209.75 376 C 208.773438 375.632812 207.914062 375.265625 206.9375 375.140625 C 206.324219 375.019531 205.714844 374.898438 205.101562 374.898438 C 204.980469 374.898438 204.734375 374.898438 204.613281 374.898438 L 202.410156 374.898438 C 199.226562 374.898438 195.066406 378.078125 193.351562 380.28125 C 183.808594 392.273438 173.039062 401.207031 162.390625 409.652344 C 163.859375 407.203125 165.453125 404.144531 168.023438 399.496094 C 168.265625 399.128906 168.390625 398.636719 168.632812 398.148438 C 169.121094 396.679688 169.121094 395.210938 168.878906 393.5 L 168.023438 388.726562 C 167.410156 385.175781 165.085938 381.871094 161.78125 379.914062 L 156.640625 376.734375 C 155.785156 376.242188 154.925781 375.753906 153.949219 375.507812 C 152.96875 375.265625 151.992188 375.019531 151.132812 374.898438 C 150.523438 374.898438 149.910156 374.898438 149.296875 374.898438 C 149.175781 374.898438 148.929688 374.898438 148.808594 374.898438 L 146.605469 375.140625 C 143.546875 375.507812 140.121094 378.9375 138.285156 381.382812 C 131.675781 390.5625 127.148438 393.253906 121.640625 402.554688 C 120.417969 404.757812 121.152344 413.078125 123.964844 414.792969 L 134.613281 421.765625 C 138.039062 423.96875 141.222656 424.703125 143.792969 424.582031 C 142.324219 426.664062 142.691406 433.636719 145.382812 435.59375 L 157.128906 445.386719 C 164.351562 451.136719 173.527344 448.078125 178.667969 445.628906 C 177.320312 447.957031 177.445312 454.320312 179.890625 456.277344 L 191.152344 466.558594 C 200.207031 474.511719 213.421875 467.65625 216.113281 466.066406 C 215.746094 468.757812 215.992188 472.0625 217.582031 473.53125 L 228.109375 484.421875 C 237.53125 493.847656 253.808594 485.648438 253.808594 485.648438 C 268.246094 476.46875 269.960938 473.65625 285.257812 458.601562 C 285.625 458.234375 285.871094 457.867188 286.238281 457.5 C 287.09375 456.277344 287.582031 454.808594 287.703125 453.21875 L 288.195312 448.566406 C 288.4375 445.386719 286.96875 441.714844 284.15625 439.023438 Z M 575.042969 160.25 L 515.566406 193.046875 C 512.265625 189.621094 507.125 188.640625 502.71875 190.601562 L 441.777344 218.867188 C 438.839844 220.214844 438.59375 224.128906 441.164062 225.964844 C 461.109375 240.039062 496.476562 276.996094 515.566406 368.410156 L 515.691406 369.023438 L 516.058594 377.101562 C 516.179688 380.039062 517.527344 382.730469 519.972656 384.441406 C 523.15625 386.523438 526.949219 386.523438 530.007812 384.441406 L 576.511719 352.503906 C 579.570312 350.421875 581.40625 346.875 581.40625 343.203125 C 581.40625 341 581.40625 338.796875 581.285156 336.472656 L 611.632812 321.542969 C 611.878906 316.523438 612 311.382812 612 306.246094 L 612 305.753906 C 611.878906 253.132812 598.539062 203.570312 575.042969 160.25 Z M 544.9375 353.847656 C 537.71875 353.847656 531.722656 347.976562 531.722656 340.632812 C 531.722656 333.289062 537.59375 327.414062 544.9375 327.414062 C 552.160156 327.414062 558.15625 333.289062 558.15625 340.632812 C 558.15625 347.976562 552.160156 353.847656 544.9375 353.847656 Z M 544.9375 353.847656 " fill-opacity="1" fill-rule="nonzero"/></svg>